Coordinates
version=1
nRows=11
nColumns=63
inDegrees=yes

Units are S.I. units (second, meters, Newtons, ...)
If the header above contains a line with 'inDegrees', this indicates whether rotational values are in degrees (yes) or radians (no).

endheader
time	pelvis_tilt	pelvis_list	pelvis_rotation	pelvis_tx	pelvis_ty	pelvis_tz	hip_flexion_r	hip_adduction_r	hip_rotation_r	knee_angle_r	knee_angle_r_beta	ankle_angle_r	subtalar_angle_r	mtp_angle_r	hip_flexion_l	hip_adduction_l	hip_rotation_l	knee_angle_l	knee_angle_l_beta	ankle_angle_l	subtalar_angle_l	mtp_angle_l	L5_S1_Flex_Ext	L5_S1_Lat_Bending	L5_S1_axial_rotation	L4_L5_Flex_Ext	L4_L5_Lat_Bending	L4_L5_axial_rotation	L3_L4_Flex_Ext	L3_L4_Lat_Bending	L3_L4_axial_rotation	L2_L3_Flex_Ext	L2_L3_Lat_Bending	L2_L3_axial_rotation	L1_L2_Flex_Ext	L1_L2_Lat_Bending	L1_L2_axial_rotation	L1_T12_Flex_Ext	L1_T12_Lat_Bending	L1_T12_axial_rotation	Abs_r3	Abs_r2	Abs_r1	Abs_t1	Abs_t2	neck_flexion	neck_bending	neck_rotation	arm_flex_r	arm_add_r	arm_rot_r	elbow_flex_r	pro_sup_r	wrist_flex_r	wrist_dev_r	arm_flex_l	arm_add_l	arm_rot_l	elbow_flex_l	pro_sup_l	wrist_flex_l	wrist_dev_l
      1.38333333	     -0.36738693	     -8.65063309	     88.68952591	      0.24588390	      0.85527577	      0.63656639	      2.32127187	      2.34383593	     13.46250018	      4.51423231	      0.07878822	     34.74168229	    -14.97098307	      0.00000000	      1.06310071	     -1.24105155	      8.25581349	      1.24694963	      0.02176338	     39.94878199	      5.96583599	      0.00000000	      0.49782784	      0.29403548	      0.66079622	      0.92451608	      0.39106719	      0.70209599	      0.81788136	      0.71491787	      0.70209599	      0.56896744	      0.71491787	      0.57819669	      0.46228293	      0.59959716	      0.53689693	      0.28445883	      0.45546096	      0.49559717	      3.55593449	      3.32618820	      3.67515035	      0.00000000	      0.00000000	     28.30413920	      7.35291659	     17.20032472	     -1.20409166	    -17.01510541	    103.80494669	     17.50300230	      8.32341260	     -2.00182714	    -10.91636247	      2.50696638	    -12.23596199	    183.84311755	      3.25355450	     12.56358582	    -10.19865381	    -10.32357752
      1.40000000	     -0.38860716	     -8.64665839	     88.85286444	      0.24582357	      0.85519793	      0.63676849	      2.55981028	      2.37844923	     13.31580687	      5.06202894	      0.08834907	     35.00521202	    -15.13127141	      0.00000000	      1.09270115	     -1.21405670	      8.51137600	      1.44786382	      0.02526999	     39.73783026	      5.39705283	      0.00000000	      0.48512116	      0.28650592	      0.62777404	      0.90091850	      0.38105287	      0.66700992	      0.79700555	      0.69661049	      0.66700992	      0.55444497	      0.69661049	      0.54930228	      0.45048351	      0.58424287	      0.51006641	      0.27719823	      0.44379767	      0.47083053	      3.46517190	      3.24101225	      3.49149088	      0.00000000	      0.00000000	     28.29302583	      8.77180983	     20.31080877	     -1.20189403	    -17.00379528	    103.39494909	     17.50389313	      7.98105720	     -2.05319389	    -11.28690450	      2.76144067	    -12.06845429	    191.71560809	      1.87840256	     19.53692242	    -11.31345626	     -7.43814589
      1.41666667	     -0.29339225	     -8.65130519	     88.88764971	      0.24582413	      0.85514443	      0.63705724	      2.66575298	      2.50276202	     13.16628111	      5.24868396	      0.09160682	     35.11437842	    -14.99356007	      0.00000000	      1.09107501	     -1.29640452	      9.03968367	      1.55450290	      0.02713119	     39.41447159	      4.21115978	      0.00000000	      0.47054693	      0.28288346	      0.68943409	      0.87385270	      0.37623500	      0.73252372	      0.77306155	      0.68780285	      0.73252372	      0.53778809	      0.68780285	      0.60325483	      0.43694988	      0.57685596	      0.56016520	      0.26887052	      0.43818648	      0.51707557	      3.36106966	      3.20003430	      3.83442556	      0.00000000	      0.00000000	     28.28016451	      8.91314202	     21.05750839	     -1.40496935	    -16.89529892	    102.63226551	     17.28788548	      7.94316756	     -1.98716653	    -11.68772253	      3.35592322	    -11.86517362	    198.31976466	      1.44472029	     27.25028226	    -14.29045504	     -4.16556539
      1.43333333	     -0.20718666	     -8.77434377	     89.03425633	      0.24536742	      0.85491333	      0.63780590	      3.02418865	      2.60454629	     12.89691101	      5.66781372	      0.09892201	     35.36708929	    -14.84837873	      0.00000000	      1.24109646	     -1.31529482	     12.08693435	      1.55808976	      0.02719380	     38.50089050	      0.09301021	      0.00000000	      0.45135843	      0.27677828	      0.72389329	      0.83821773	      0.36811511	      0.76913662	      0.74153676	      0.67295870	      0.76913662	      0.51585754	      0.67295870	      0.63340663	      0.41913143	      0.56440626	      0.58816330	      0.25790620	      0.42872955	      0.54291997	      3.22400810	      3.13097122	      4.02607733	      0.00000000	      0.00000000	     28.27047333	      9.00622843	     21.80081921	     -1.73931060	    -16.83936120	     99.98100185	     17.13131298	      9.28804892	     -2.20282148	    -12.02943384	      4.01821264	    -11.88103051	    194.72930435	      1.33393974	     39.77613978	    -16.19890199	     -2.91023190
      1.45000000	     -0.21042439	     -8.84751849	     89.04743140	      0.24521213	      0.85475425	      0.63921258	      3.40144971	      2.63880489	     12.98862234	      6.13410324	      0.10706030	     35.63895800	    -14.91072054	      0.00000000	      1.42888471	     -1.27921616	     12.47858717	      1.59773529	      0.02788574	     38.19263716	     -0.73899059	      0.00000000	      0.39277455	      0.26108159	      0.77789356	      0.72942162	      0.34723851	      0.82651191	      0.64528931	      0.63479377	      0.82651191	      0.44890203	      0.63479377	      0.68065687	      0.36473045	      0.53239757	      0.63203852	      0.22443138	      0.40441538	      0.58342017	      2.80554934	      2.95340712	      4.32641064	      0.00000000	      0.00000000	     28.23562578	      9.62675516	     23.47208380	     -1.66455604	    -16.57185446	     99.19536685	     16.64732995	      9.55644363	     -2.20055834	    -12.58197889	      4.97830640	    -11.97800669	    195.33772832	      1.19201947	     43.54354208	    -16.77884317	     -1.89719824
      1.46666667	     -0.09469463	     -9.00832924	     89.23718235	      0.24457832	      0.85436109	      0.64036227	      3.61698142	      2.72733510	     13.10578245	      6.10633793	      0.10657570	     35.76596239	    -14.85911920	      0.00000000	      1.69794182	     -1.35309471	     12.48078703	      1.52882436	      0.02668302	     38.14654401	     -0.74927258	      0.00000000	      0.36082029	      0.25287819	      0.78763988	      0.67007936	      0.33632799	      0.83686737	      0.59279166	      0.61484803	      0.83686737	      0.41238151	      0.61484803	      0.68918489	      0.33505772	      0.51566920	      0.63995740	      0.20617271	      0.39170831	      0.59072991	      2.57730326	      2.86060864	      4.38061672	      0.00000000	      0.00000000	     28.15678844	      9.58070660	     23.56844231	     -1.43057111	    -16.47091121	     99.10785242	     16.51856728	      9.54147311	     -2.23200025	    -12.68486056	      5.82060845	    -12.19741185	    195.28728523	      1.00130060	     43.59737388	    -16.79101652	     -1.84727300
      1.48333333	     -0.19375644	     -9.19965182	     89.33975160	      0.24421494	      0.85399882	      0.64272978	      4.31846183	      2.67758950	     13.06370743	      6.94569625	      0.12122527	     36.22450479	    -14.82835758	      0.00000000	      2.17836991	     -1.19862983	     13.53459440	      1.64087452	      0.02863866	     37.78418636	     -1.96016193	      0.00000000	      0.28274998	      0.22558122	      0.84178379	      0.52509499	      0.30002302	      0.89439527	      0.46452994	      0.54847818	      0.89439527	      0.32315495	      0.54847818	      0.73656081	      0.26256163	      0.46000522	      0.68394933	      0.16156334	      0.34942531	      0.63133784	      2.01965482	      2.55181988	      4.68174888	      0.00000000	      0.00000000	     28.07006612	     10.40043412	     25.65140366	     -1.45396412	    -16.04267971	     96.81872728	     15.82404504	     10.93402615	     -2.50831381	    -13.38976002	      7.10421470	    -12.43468610	    187.57781166	      1.12039589	     52.14939141	    -17.61405974	     -2.72405886
      1.50000000	     -0.20138281	     -9.36843569	     89.55078837	      0.24352729	      0.85365943	      0.64487519	      4.79037481	      2.66860180	     13.19460162	      7.40013164	      0.12915666	     36.45546229	    -14.85230461	      0.00000000	      2.58104948	     -1.13486177	     13.68964809	      1.66005915	      0.02897350	     37.65459076	     -1.93737400	      0.00000000	      0.21696929	      0.20742898	      0.87423495	      0.40293366	      0.27588055	      0.92887464	      0.35645884	      0.50434283	      0.92887464	      0.24797420	      0.50434283	      0.76495558	      0.20147768	      0.42298918	      0.71031590	      0.12397625	      0.32130750	      0.65567621	      1.54978991	      2.34647815	      4.86223253	      0.00000000	      0.00000000	     27.88440309	     10.31232345	     26.15553755	     -1.19006052	    -15.78086366	     96.44000026	     15.40997316	     10.92697711	     -2.56845243	    -13.65258338	      8.29145155	    -12.69698911	    185.37812067	      1.05523870	     50.71139540	    -17.62122826	     -3.18766055
      1.51666667	     -0.15989316	     -9.50111082	     89.85027968	      0.24293611	      0.85332349	      0.64688899	      5.14882328	      2.71052930	     13.16517704	      7.71729266	      0.13469217	     36.61994111	    -14.88097047	      0.00000000	      2.92386310	     -1.13775894	     14.06798272	      1.65994092	      0.02897143	     37.44833234	     -2.10310643	      0.00000000	      0.15556420	      0.18961749	      0.88659482	      0.28889828	      0.25219126	      0.94200700	      0.25557643	      0.46103596	      0.94200700	      0.17779433	      0.46103596	      0.77577047	      0.14445692	      0.38666798	      0.72035829	      0.08888938	      0.29371749	      0.66494612	      1.11117953	      2.14499093	      4.93097442	      0.00000000	      0.00000000	     27.59514909	      9.63377935	     25.73686149	     -0.85864338	    -15.58385634	     96.27921337	     15.17253022	     11.14366778	     -2.71058976	    -13.60394847	      9.33213337	    -13.15886262	    179.86341385	      0.96683863	     46.84092919	    -16.80925828	     -5.23245503
      1.53333333	     -0.06881741	     -9.70376357	     90.09341571	      0.24237519	      0.85293474	      0.64880988	      5.55087991	      2.78522184	     13.13372997	      7.94952999	      0.13874547	     36.64578154	    -14.86010836	      0.00000000	      3.29701414	     -1.18973877	     14.67667161	      1.62008975	      0.02827590	     37.11063635	     -2.65097220	      0.00000000	      0.11589575	      0.17361465	      0.90322932	      0.21522999	      0.23090749	      0.95968115	      0.19040512	      0.42212666	      0.95968115	      0.13245725	      0.42212666	      0.79032566	      0.10762079	      0.35403500	      0.73387382	      0.06622283	      0.26892909	      0.67742199	      0.82783173	      1.96396366	      5.02349052	      0.00000000	      0.00000000	     27.30244034	      8.21287781	     24.01569531	     -0.52730651	    -15.45370532	     96.35285171	     14.98360970	     11.33234461	     -2.79629641	    -13.39606714	     10.00503541	    -13.69893404	    172.84719006	      0.89613415	     40.44622714	    -15.84007462	     -7.92535984
      1.55000000	      0.01429042	     -9.99079000	     90.35224994	      0.24176338	      0.85240757	      0.65074754	      6.08495660	      2.83644265	     12.89521648	      8.20517902	      0.14320739	     36.75616349	    -14.79832793	      0.00000000	      3.74275800	     -1.22489016	     15.64353952	      1.54605196	      0.02698370	     36.64506143	     -3.69898295	      0.00000000	      0.08754689	      0.15206006	      0.90944084	      0.16258333	      0.20223988	      0.96628090	      0.14383079	      0.36971883	      0.96628090	      0.10005734	      0.36971883	      0.79576074	      0.08129604	      0.31008087	      0.73892069	      0.05002429	      0.23554103	      0.68208063	      0.62533870	      1.72013380	      5.05803715	      0.00000000	      0.00000000	     27.17983387	      6.38289326	     21.48434429	     -0.16267844	    -15.38053332	     96.59052834	     14.86026526	     11.44488963	     -2.72618587	    -13.09254183	     10.35377036	    -14.17369546	    166.49921821	      0.83654463	     32.55540042	    -14.40868136	    -10.60502857
